# xmcd
#
# Track frame offsets: 
#        150
#        12105
#        30402
#        64885
#        79847
#        99180
#        118322
#        132407
#        151145
#        182867
#        212840
#        251872
#        274767
#        296512
#        317372
#
# Disc length: 4579 seconds
#
# Revision: 0
# Processed by: cddbd v1.4PL0 Copyright (c) Steve Scherf et al.
# Submitted via: ExactAudioCopy v0.90b4
#
DISCID=d011e10f
DTITLE=Eddie "Cleanhead" Vinson - Blues, Boogie and Bebop - Meat's Too H
DTITLE=igh
DYEAR=1980
DGENRE=Blues
TTITLE0=Old Maid Boogie
TTITLE1=Somebody's Got To Go
TTITLE2=Travellin'
TTITLE3=Home Boy
TTITLE4=Meat's Too High
TTITLE5=If You Were My Buddy
TTITLE6=Investigation Blues
TTITLE7=That's All
TTITLE8=Race Track Blues
TTITLE9=Somebody Else Has Taken My Place
TTITLE10=Cleanhead's Thing
TTITLE11=Roxanne
TTITLE12=Fun In London
TTITLE13=High Class Baby
TTITLE14=Straight Away
EXTD=
EXTT0=
EXTT1=
EXTT2=
EXTT3=
EXTT4=
EXTT5=
EXTT6=
EXTT7=
EXTT8=
EXTT9=
EXTT10=
EXTT11=
EXTT12=
EXTT13=
EXTT14=
PLAYORDER=
